<!--?xml version="1.0" encoding="UTF-8"?-->
<svg id="_レイヤー_1" data-name="レイヤー 1" xmlns="http://www.w3.org/2000/svg" viewBox="0 0 400.14 313.8">
  <defs>
    <style>
      .cls-1 {
        fill: #fff;
      }

      .cls-2 {
        fill: #c68e31;
      }
    </style>
  </defs>
  <g>
    <path class="cls-1 kagayaki-svg-elem-1" d="M165.61,231.63c6.54-1,15.8-2.6,22.26-3.39,48.94-6.07,107.68-14.56,156.51-19.72,0,0,.51,2.91.51,2.91-40.85,6.35-92.78,12.21-134,17.75-7.62.94-26.11,3.48-33.56,4.11,0,0-11.23,1.12-11.23,1.12l-.49-2.79h0Z"></path>
    <path class="cls-1 kagayaki-svg-elem-2" d="M341.82,208.86c-10.39,1.16-18.75-4.91-18.75-13.71,0,8.8-8.36,17.02-18.75,18.54l37.51-4.84Z"></path>
  </g>
  <g>
    <path class="cls-1 kagayaki-svg-elem-3" d="M250.07,150.94l111.88-14.54s-2.09-1.33-11.48-.35-85.46,10.03-90.65,9.56c-2.33-.21-4.34-2.81-4.78-5.9-.8-5.69-2.34-89.64-2.62-96.19s-2.36-8.45-2.36-8.45v115.88Z"></path>
    <path class="cls-1 kagayaki-svg-elem-4" d="M250.12,150.93l-111.88,14.54s2.09-1.87,11.48-3.34c9.39-1.47,85.46-12.18,90.65-14.01,2.33-.82,4.34-3.94,4.78-7.15.8-5.9,2.34-90.24,2.62-96.87.28-6.62,2.36-9.06,2.36-9.06v115.88Z"></path>
    <path class="cls-1 kagayaki-svg-elem-5" d="M250.04,150.94l111.88-14.54s-2.09,2.52-11.48,4.09c-9.39,1.57-85.46,12.62-90.65,14.91-2.33,1.03-4.34,5.31-4.78,9.79-.8,8.25-2.34,126.71-2.62,136-.28,9.29-2.36,12.61-2.36,12.61v-162.86Z"></path>
    <path class="cls-1 kagayaki-svg-elem-6" d="M250.1,150.93l-111.88,14.54s2.09,1.97,11.48,1.1c9.39-.87,85.46-9.6,90.65-8.66,2.33.42,4.34,4.18,4.78,8.55.8,8.04,2.34,126.1,2.62,135.32.28,9.22,2.36,12,2.36,12v-162.86Z"></path>
  </g>
  <g>
    <path class="cls-1 kagayaki-svg-elem-7" d="M187.99,119.55c2.4-.42,8.12-1.42,10.41-1.83,2.2-.37,14.99-1.96,17.48-2.31,13.94-1.83,42.03-5.45,55.98-7.21,8.18-.96,19.89-2.8,28.07-3.15,0,0,.51,2.91.51,2.91-7.88,1.72-19.77,2.93-27.91,4.07-20.19,2.66-49.85,6.45-69.97,9.01-2.08.31-4.92.54-7.03.71,0,0-7.05.59-7.05.59l-.49-2.79h0Z"></path>
    <path class="cls-1 kagayaki-svg-elem-8" d="M183.36,121.89l16.68-2.15s.03,0,.03.03v77.54s-.01.03-.03.03l-16.68,2.15s-.03,0-.03-.03v-77.54s.01-.03.03-.03Z"></path>
    <path class="cls-1 kagayaki-svg-elem-9" d="M200.07,131.27v-10.28l8.49-1.09v-3.31c-10.08,1.3-18.26-6.21-18.26-16.3,0,10.77-8.73,20.62-19.5,22.01,7.03-.91,12.53,4.12,12.53,10.78"></path>
    <path class="cls-1 kagayaki-svg-elem-10" d="M187.99,195.56c2.4-.42,8.12-1.42,10.41-1.83,2.2-.37,14.99-1.96,17.48-2.31,13.94-1.83,42.03-5.45,55.98-7.21,8.18-.96,19.89-2.8,28.07-3.15,0,0,.51,2.91.51,2.91-7.88,1.72-19.77,2.93-27.91,4.07-20.19,2.66-49.85,6.45-69.97,9.01-2.08.31-4.92.54-7.03.71,0,0-7.05.59-7.05.59l-.49-2.79h0Z"></path>
    <path class="cls-1 kagayaki-svg-elem-11" d="M295.97,105.49l16.68-2.15s.03,0,.03.03v77.54s-.01.03-.03.03l-16.68,2.15s-.03,0-.03-.03v-77.54s.01-.03.03-.03Z"></path>
    <path class="cls-1 kagayaki-svg-elem-12" d="M295.93,118.95v-10.28l-8.49,1.09v-3.31c10.08-1.3,18.26-10.92,18.26-21,0,10.77,8.73,18.37,19.5,16.99-7.03.91-12.53,7.35-12.53,14.01"></path>
    <path class="cls-1 kagayaki-svg-elem-13" d="M200.07,183.61v10.28l8.49-1.09v3.31c-10.08,1.3-18.26,10.92-18.26,21,0-10.77-8.73-18.37-19.5-16.99,7.03-.91,12.53-7.35,12.53-14.01"></path>
    <path class="cls-1 kagayaki-svg-elem-14" d="M295.93,171.22v10.28l-8.49,1.09v3.31c10.08-1.3,18.26,6.21,18.26,16.3,0-10.77,8.73-20.62,19.5-22.01-7.03.91-12.53-4.12-12.53-10.78"></path>
  </g>
  <g>
    <path class="cls-1 kagayaki-svg-elem-15" d="M175.42,93.5c5.85-.91,14.13-2.39,19.92-3.09,28.71-3.74,71.2-9.25,100.03-12.91,11.67-1.41,28.45-3.9,40.09-4.7,0,0,.51,2.91.51,2.91-6.6,1.25-13.26,2.17-19.93,3.02-38.61,5.01-86.44,11.26-125.05,16.09-3.36.33-11.66,1.13-15.09,1.46,0,0-.49-2.79-.49-2.79h0Z"></path>
    <path class="cls-1 kagayaki-svg-elem-16" d="M331.7,73.3c-10.39,1.16-18.75-4.91-18.75-13.71,0,8.8-8.36,17.02-18.75,18.54l37.51-4.84Z"></path>
  </g>
  <path class="cls-1 kagayaki-svg-elem-17" d="M312.81,9.39s3.5,7.78,8.24,11.41c4.74,3.63,12.97,5.86,12.97,5.86,0,0-12.82,7.72-20.29,13.12-9.47,6.85-20.29,18.27-20.29,18.27,0,0,4.62-16.95,8.68-26.66,4.26-10.16,10.68-22.01,10.68-22.01Z"></path>
  <path class="cls-1 kagayaki-svg-elem-18" d="M187.58,38.97c2.79-.47,9.43-1.59,12.1-2.04,2.56-.41,17.4-2.27,20.3-2.67,16.18-2.12,48.78-6.32,64.98-8.37,9.48-1.13,23.09-3.22,32.57-3.73,0,0,.51,2.91.51,2.91-9.17,1.89-22.96,3.34-32.41,4.65-26.85,3.37-62.6,8.39-89.38,11.31,0,0-8.18.73-8.18.73l-.49-2.79h0Z"></path>
  <path class="cls-1 kagayaki-svg-elem-19" d="M189.56,19.82s-.05,0-.06.02c-.18,1.2-2.52,16.9-6.18,27.23-3.61,10.17-12.87,25.66-12.87,25.66h0c5.08,3.92,13.22,4.97,18.65,5.49h0s5.59-12.46,6.66-24.19c2.18-23.75-5.53-33.42-6.2-34.2Z"></path>
  <g>
    <path class="cls-1 kagayaki-svg-elem-20" d="M120.23,151.71l16.68-2.15s.03,0,.03.03v94.54s-.01.03-.03.03l-16.68,2.15s-.03,0-.03-.03v-94.54s.01-.03.03-.03Z"></path>
    <path class="cls-1 kagayaki-svg-elem-21" d="M105.63,251.66l15.97,17.33s.03.01.04,0c.78-.66,21.03-17.81,31.38-29.08,10.01-10.9,28.27-32.58,30.11-34.77.03-.03,0-.07-.04-.05-2.37,1.65-26.14,18.21-35.92,25.04-10.08,7.03-40.24,20.87-41.53,21.46-.02.01-.03.04-.01.05Z"></path>
  </g>
  <path class="cls-1 kagayaki-svg-elem-22" d="M81.26,156.73s-.02.01-.02.02c.02,1.11.64,45.03,0,63.34-1.41,40.28-26.31,72.87-28.05,75.11-.05.07-.04.08.03.03,2.59-2.02,44.52-35.5,44.76-77.27.16-28.53,0-62.4,0-63.36l-.02-.02-16.69,2.15Z"></path>
  <g>
    <path class="cls-1 kagayaki-svg-elem-23" d="M47.52,150.99c2.79-.47,9.43-1.59,12.1-2.04,2.56-.41,17.4-2.27,20.3-2.67,16.18-2.12,48.78-6.32,64.98-8.37,9.48-1.13,23.09-3.22,32.57-3.73,0,0,.51,2.91.51,2.91-9.17,1.89-22.96,3.34-32.41,4.65-26.85,3.37-62.6,8.39-89.38,11.31,0,0-8.18.73-8.18.73l-.49-2.79h0Z"></path>
    <path class="cls-1 kagayaki-svg-elem-24" d="M173.7,134.67c-10.39,1.16-18.75-4.91-18.75-13.71,0,8.8-8.36,17.02-18.75,18.54l37.51-4.84Z"></path>
  </g>
  <path class="cls-1 kagayaki-svg-elem-25" d="M142.67,47.92s-.13,9.99-5.05,26.84c-4.92,16.85-11.17,32.55-11.17,32.55,0,0,15.42-11.29,26.72-30.83,11.3-19.54,14.62-28.21,14.62-28.21,0,0-7.44,2.42-13.29,2.78s-11.83-3.13-11.83-3.13Z"></path>
  <path class="cls-1 kagayaki-svg-elem-26" d="M61.9,75.35s15.24,3.42,22.35,17.42c7.11,14,6.57,28.95,6.57,28.95l-19.91,12.2s4.57-20,2.22-30.52c-3.61-16.22-11.24-28.05-11.24-28.05Z"></path>
  <g>
    <polygon class="cls-1 kagayaki-svg-elem-27" points="102.04 31.62 118.04 29.56 118.04 143.38 102.04 145.45 102.04 31.62"></polygon>
    <path class="cls-1 kagayaki-svg-elem-28" d="M110.04,0c0,13.13-10.05,25.06-22.44,26.66h0c6-.77,14.44,2.46,14.44,8.43l16-2.06c0-5.89,8.44-11.38,14.44-12.16h0c-12.39,1.6-22.44-7.75-22.44-20.87Z"></path>
  </g>
  <path class="cls-2 kagayaki-svg-elem-29" d="M399.83,64.83c-3.16-8.44-29.84-7.14-70.09,1.76,29.09-4.98,48.04-4.39,50.79,2.98,6.1,16.3-69.45,59.61-168.73,96.73-99.28,37.12-184.71,53.99-190.81,37.69-3.02-8.09,14.06-22.83,44.16-40.16C22.37,185.99-3.14,204.94.31,214.19c6.11,16.35,100.5-3.83,210.82-45.08,110.32-41.24,194.8-87.93,188.69-104.28Z"></path>
</svg>