<!--?xml version="1.0" encoding="UTF-8"?-->
<svg id="_レイヤー_2" data-name="レイヤー 2" xmlns="http://www.w3.org/2000/svg" viewBox="0 0 882.44 425.22">
  <defs>
    <style>
      .cls-3 {
        stroke-width: 2px;
      }

      .cls-3, .cls-4 {
        stroke: var(--svg-stroke-color);
        stroke-miterlimit: 10;
      }

      .cls-4 {
        stroke-width: 2px;
      }
    </style>
  </defs>
  <g id="_レイヤー_1-2" data-name="レイヤー 1">
    <g>
      <path class="cls-3 tkgo-svg-elem-1" d="M29.24,13.68H1.45V2.45h67.25v11.23h-27.79v107.57h-11.66V13.68Z"></path>
      <path class="cls-3 tkgo-svg-elem-2" d="M68.26,83.24h11.52c.14,16.56,10.37,29.09,28.37,29.09,16.13,0,27.36-9.94,27.36-23.76,0-16.27-13.39-20.59-29.52-25.06-17.28-5.04-31.1-12.67-31.1-32.83C74.89,13.25,88.42,0,108.01,0c21.6,0,34.42,14.4,34.56,36l-11.38-.14c-.14-14.98-7.78-24.91-23.18-24.91-13.39,0-21.74,8.21-21.74,19.87,0,13.97,9.65,18.43,23.47,22.32,18.29,5.47,37.44,11.09,37.44,35.57,0,20.3-16.27,34.56-39.02,34.56-24.34,0-39.74-16.85-39.89-40.03Z"></path>
      <path class="cls-3 tkgo-svg-elem-3" d="M157.97,76.04V2.74h11.66v73.58c0,19.44,8.21,35.42,29.23,35.42s29.52-15.98,29.52-35.42V2.74h11.66v73.29c0,27.07-14.11,47.09-41.18,47.09s-40.9-20.16-40.9-47.09Z"></path>
      <path class="cls-3 tkgo-svg-elem-4" d="M256.61,2.74h11.66v50.54L309.46,2.74h14.83l-44.78,52.99,55.15,65.52h-15.26l-51.12-62.78v62.93h-11.66V2.74Z"></path>
      <path class="cls-3 tkgo-svg-elem-5" d="M333.94,76.04V2.74h11.66v73.58c0,19.44,8.21,35.42,29.23,35.42s29.52-15.98,29.52-35.42V2.74h11.66v73.29c0,27.07-14.11,47.09-41.18,47.09s-40.9-20.16-40.9-47.09Z"></path>
      <path class="cls-3 tkgo-svg-elem-6" d="M432.58,2.74h11.66v50.54L485.42,2.74h14.83l-44.78,52.99,55.15,65.52h-15.26l-51.12-62.78v62.93h-11.66V2.74Z"></path>
      <path class="cls-3 tkgo-svg-elem-7" d="M561.74,123.41c-35.85,0-61.63-28.66-61.63-61.63S525.89.29,561.74.29s61.49,28.66,61.49,61.49-25.78,61.63-61.49,61.63ZM561.74,111.75c28.08,0,49.82-22.18,49.82-49.97s-21.74-49.82-49.82-49.82-49.97,22.03-49.97,49.82,21.74,49.97,49.97,49.97Z"></path>
      <path class="cls-3 tkgo-svg-elem-8" d="M636.34,2.74h13.82l51.7,105.55L753.12,2.74h13.82v118.51h-11.66V23.62l-47.66,97.63h-11.52l-48.1-97.92v97.92h-11.66V2.74Z"></path>
      <path class="cls-3 tkgo-svg-elem-9" d="M775.15,121.25L823.25,2.74h12.82l46.37,118.51h-12.1l-7.78-19.87h-67.1l-7.92,19.87h-12.38ZM858.53,91.01l-28.94-74.73-29.95,74.73h58.89Z"></path>
    </g>
    <g>
      <path class="cls-4 tkgo-svg-elem-10" d="M167.26,278.9c0-65.66,51.55-122.97,123.26-122.97,58.17,0,103.1,38.02,117.5,87.55l-67.1.29c-8.64-17.57-27.94-29.66-50.4-29.66-40.03,0-65.95,29.95-65.95,65.66s25.34,65.66,65.38,65.66c24.48,0,47.52-14.69,55.01-36.29h-70.27v-43.2h137.37c8.64,71.42-46.37,136.22-121.53,136.22s-123.26-57.31-123.26-123.26Z"></path>
      <path class="cls-4 tkgo-svg-elem-11" d="M553.75,402.16c-71.71,0-123.26-57.31-123.26-123.26s51.55-122.97,123.26-122.97c39.24,0,72.48,17.3,94.47,43.78,18.03,21.72,65.5,79.19,65.5,79.19,0,0-50.57,65.41-73.44,88.12-21.7,21.55-51.76,35.14-86.54,35.14ZM553.75,343.99c37.44,0,64.8-29.66,64.8-65.09s-27.36-64.8-64.8-64.8-65.09,29.38-65.09,64.8,27.36,65.09,65.09,65.09Z"></path>
    </g>
  </g>
</svg>